<?xml version="1.0" encoding="UTF-8"?>
<svg version="1.1" xmlns="http://www.w3.org/2000/svg" width="512" height="512">
<path d="M0 0 C5.3116486 3.17239748 5.3116486 3.17239748 11.22875977 4.28857422 C13.73671126 3.07485691 15.94927085 1.82825217 18.29125977 0.35107422 C36.39196229 -10.36996536 58.01262504 -18.19485902 79.22875977 -18.71142578 C80.26323242 -18.76943359 80.26323242 -18.76943359 81.31860352 -18.82861328 C117.69313609 -20.04787136 145.73907621 0.98944596 171.10375977 24.47607422 C175.41429453 28.51064439 179.58125067 32.55685344 183.36157227 37.10107422 C186.05327928 40.25453851 188.89709107 43.26094914 191.72875977 46.28857422 C197.25844826 52.22083087 202.64310185 58.24346444 207.89282227 64.42529297 C210.46552114 67.45384339 213.06275506 70.46038956 215.66577148 73.46289062 C217.1720477 75.22233042 218.64083526 77.00794773 220.10766602 78.80029297 C226.46371559 86.35637512 232.66361556 90.5255037 241.63110352 94.58544922 C246.82178367 97.04270931 250.69473025 99.68739373 253.66625977 104.72607422 C255.11576796 111.32938933 253.87186561 116.02532213 250.72875977 121.85107422 C250.18409058 122.89424805 250.18409058 122.89424805 249.62841797 123.95849609 C248.51237075 126.07823841 247.37381205 128.18438404 246.22875977 130.28857422 C245.90311035 130.89685059 245.57746094 131.50512695 245.24194336 132.13183594 C228.16907709 163.88932041 202.37720596 195.77453222 173.95922852 218.09326172 C171.71030358 219.90141024 169.55368844 221.75700602 167.39672852 223.67138672 C119.35837603 265.87855911 53.78425199 284.61048548 -9.25952148 281.00732422 C-52.81407927 277.89189232 -96.3734962 261.81688322 -131.77124023 236.28857422 C-132.41899414 235.82338379 -133.06674805 235.35819336 -133.73413086 234.87890625 C-153.38179106 220.674692 -171.79423779 204.54800558 -187.77124023 186.28857422 C-188.6387793 185.30888672 -189.50631836 184.32919922 -190.40014648 183.31982422 C-203.38019962 168.46410948 -214.73423443 152.25523882 -224.77124023 135.28857422 C-225.26237305 134.46228516 -225.75350586 133.63599609 -226.25952148 132.78466797 C-235.99413094 116.16648243 -235.99413094 116.16648243 -235.51342773 107.61279297 C-233.98788694 102.83544154 -231.61726943 99.53562239 -227.27514648 97.05810547 C-225.9692551 96.39006656 -224.65514372 95.73787961 -223.33374023 95.10107422 C-222.02200668 94.44198292 -220.71079758 93.78184669 -219.40014648 93.12060547 C-218.77462891 92.80663818 -218.14911133 92.4926709 -217.50463867 92.16918945 C-207.42527015 87.04858632 -199.98694769 77.82155079 -192.77124023 69.28857422 C-190.85772379 67.03587989 -188.94049286 64.78638303 -187.02124023 62.53857422 C-186.50803223 61.93730713 -185.99482422 61.33604004 -185.46606445 60.71655273 C-181.23057187 55.77646542 -176.86885177 50.968795 -172.43920898 46.20263672 C-170.42650404 44.00427964 -168.46914587 41.78437598 -166.52514648 39.52685547 C-156.35449688 27.86623809 -145.16538503 16.57972449 -132.77124023 7.28857422 C-131.62625746 6.39201514 -130.48175918 5.4948371 -129.33764648 4.59716797 C-89.89767225 -25.86616613 -42.40921863 -23.65237522 0 0 Z " fill="#FD5D89" transform="translate(234.771240234375,165.71142578125)"/>
<path d="M0 0 C5.3116486 3.17239748 5.3116486 3.17239748 11.22875977 4.28857422 C13.73671126 3.07485691 15.94927085 1.82825217 18.29125977 0.35107422 C36.39196229 -10.36996536 58.01262504 -18.19485902 79.22875977 -18.71142578 C80.26323242 -18.76943359 80.26323242 -18.76943359 81.31860352 -18.82861328 C117.69313609 -20.04787136 145.73907621 0.98944596 171.10375977 24.47607422 C175.41429453 28.51064439 179.58125067 32.55685344 183.36157227 37.10107422 C186.05327928 40.25453851 188.89709107 43.26094914 191.72875977 46.28857422 C197.25844826 52.22083087 202.64310185 58.24346444 207.89282227 64.42529297 C210.46552114 67.45384339 213.06275506 70.46038956 215.66577148 73.46289062 C217.1720477 75.22233042 218.64083526 77.00794773 220.10766602 78.80029297 C226.46371559 86.35637512 232.66361556 90.5255037 241.63110352 94.58544922 C246.82178367 97.04270931 250.69473025 99.68739373 253.66625977 104.72607422 C255.11576796 111.32938933 253.87186561 116.02532213 250.72875977 121.85107422 C250.18409058 122.89424805 250.18409058 122.89424805 249.62841797 123.95849609 C248.51237075 126.07823841 247.37381205 128.18438404 246.22875977 130.28857422 C245.90311035 130.89685059 245.57746094 131.50512695 245.24194336 132.13183594 C228.16907709 163.88932041 202.37720596 195.77453222 173.95922852 218.09326172 C171.71030358 219.90141024 169.55368844 221.75700602 167.39672852 223.67138672 C119.35837603 265.87855911 53.78425199 284.61048548 -9.25952148 281.00732422 C-52.81407927 277.89189232 -96.3734962 261.81688322 -131.77124023 236.28857422 C-132.41899414 235.82338379 -133.06674805 235.35819336 -133.73413086 234.87890625 C-153.38179106 220.674692 -171.79423779 204.54800558 -187.77124023 186.28857422 C-188.6387793 185.30888672 -189.50631836 184.32919922 -190.40014648 183.31982422 C-203.38019962 168.46410948 -214.73423443 152.25523882 -224.77124023 135.28857422 C-225.26237305 134.46228516 -225.75350586 133.63599609 -226.25952148 132.78466797 C-235.99413094 116.16648243 -235.99413094 116.16648243 -235.51342773 107.61279297 C-233.98788694 102.83544154 -231.61726943 99.53562239 -227.27514648 97.05810547 C-225.9692551 96.39006656 -224.65514372 95.73787961 -223.33374023 95.10107422 C-222.02200668 94.44198292 -220.71079758 93.78184669 -219.40014648 93.12060547 C-218.77462891 92.80663818 -218.14911133 92.4926709 -217.50463867 92.16918945 C-207.42527015 87.04858632 -199.98694769 77.82155079 -192.77124023 69.28857422 C-190.85772379 67.03587989 -188.94049286 64.78638303 -187.02124023 62.53857422 C-186.50803223 61.93730713 -185.99482422 61.33604004 -185.46606445 60.71655273 C-181.23057187 55.77646542 -176.86885177 50.968795 -172.43920898 46.20263672 C-170.42650404 44.00427964 -168.46914587 41.78437598 -166.52514648 39.52685547 C-156.35449688 27.86623809 -145.16538503 16.57972449 -132.77124023 7.28857422 C-131.62625746 6.39201514 -130.48175918 5.4948371 -129.33764648 4.59716797 C-89.89767225 -25.86616613 -42.40921863 -23.65237522 0 0 Z M-114.77124023 30.28857422 C-115.29621094 30.71203125 -115.82118164 31.13548828 -116.36206055 31.57177734 C-129.92787786 42.57021311 -142.44038939 55.00860521 -153.77124023 68.28857422 C-154.51772827 69.1603833 -154.51772827 69.1603833 -155.27929688 70.04980469 C-156.2358322 71.16928142 -157.19125943 72.28970603 -158.14550781 73.41113281 C-163.16569909 79.30992148 -168.27752353 85.09978207 -173.50952148 90.81201172 C-179.49000884 97.27217502 -179.49000884 97.27217502 -184.77124023 104.28857422 C-172.44463327 104.47442391 -160.11836284 104.61632917 -147.79063702 104.70307159 C-142.06548552 104.74471685 -136.34129673 104.80115007 -130.61669922 104.89208984 C-125.08582495 104.97939633 -119.55587306 105.02692845 -114.02436256 105.04759216 C-111.92045392 105.06230611 -109.81659239 105.09103971 -107.71307945 105.13441467 C-92.54405068 105.65468404 -92.54405068 105.65468404 -79.8359375 98.2769928 C-79.1545874 97.62081467 -78.4732373 96.96463654 -77.77124023 96.28857422 C-74.95374854 94.45020505 -72.03950833 92.83087547 -69.08374023 91.22607422 C-68.31537842 90.80616211 -67.5470166 90.38625 -66.75537109 89.95361328 C-30.3235627 70.342536 10.15717695 63.25465755 50.35375977 74.97607422 C63.16055753 78.92898952 75.15793185 84.58090577 87.04125977 90.72607422 C87.75934814 91.09514893 88.47743652 91.46422363 89.21728516 91.84448242 C93.66502633 94.21377275 97.07877331 96.91938546 100.85375977 100.28857422 C108.81459473 106.20292205 118.90253141 105.23346086 128.42651367 105.12841797 C129.74312988 105.11681641 131.05974609 105.10521484 132.41625977 105.09326172 C133.60606445 105.06216309 134.79586914 105.03106445 136.02172852 104.99902344 C140.9429638 105.44334325 143.37084909 107.29154289 146.54125977 110.97607422 C148.59115926 114.999951 149.09404712 117.86501335 148.22875977 122.28857422 C145.7748925 127.29068825 143.31321671 129.19568747 138.22875977 131.28857422 C134.95239258 131.60986328 134.95239258 131.60986328 131.43188477 131.55419922 C129.49829102 131.56 129.49829102 131.56 127.52563477 131.56591797 C125.50674686 131.5576118 123.48945237 131.53879005 121.47094727 131.49804688 C111.37792629 131.32735608 105.90665863 132.80263854 98.22875977 139.28857422 C66.31755364 160.87624688 24.77514587 172.83205505 -13.64624023 166.16357422 C-16.37844744 165.62193842 -19.07352683 164.98088573 -21.77124023 164.28857422 C-22.94130615 163.99055908 -22.94130615 163.99055908 -24.13500977 163.68652344 C-46.71871645 157.75979876 -67.64178885 147.60417273 -86.77124023 134.28857422 C-89.86958088 132.22301379 -90.50303928 132.03945195 -94.00431824 132.04806519 C-94.86668594 132.04531586 -95.72905365 132.04256653 -96.61755371 132.03973389 C-98.03203796 132.05051971 -98.03203796 132.05051971 -99.47509766 132.06152344 C-100.47039993 132.06123138 -101.46570221 132.06093933 -102.49116516 132.06063843 C-105.78643461 132.06203361 -109.08147895 132.07760383 -112.37670898 132.09326172 C-114.65928524 132.09699117 -116.9418631 132.09983846 -119.22444153 132.10183716 C-125.23652556 132.10947891 -131.24851318 132.12913212 -137.26055908 132.15124512 C-143.39366349 132.17169184 -149.52678345 132.18083637 -155.65991211 132.19091797 C-167.69706387 132.21237745 -179.73414404 132.24651998 -191.77124023 132.28857422 C-190.82631714 133.95508278 -190.82631714 133.95508278 -189.86230469 135.65525818 C-189.50795853 136.28019889 -189.15361237 136.9051396 -188.78852844 137.54901791 C-187.62768976 139.53404461 -186.35308301 141.37066472 -184.95874023 143.19873047 C-184.44657959 143.87162109 -183.93441895 144.54451172 -183.40673828 145.23779297 C-182.86702393 145.93517578 -182.32730957 146.63255859 -181.77124023 147.35107422 C-181.20381104 148.08841797 -180.63638184 148.82576172 -180.05175781 149.58544922 C-174.93976534 156.17370403 -169.59104779 162.53367414 -164.08325195 168.79296875 C-162.88715436 170.15643989 -161.7053528 171.53241852 -160.52514648 172.90966797 C-156.85014363 177.15777069 -153.04019419 180.93691808 -148.74780273 184.55810547 C-146.76307795 186.29572025 -144.96585862 188.12991068 -143.14624023 190.03857422 C-138.06500092 195.17924323 -132.3806183 199.50652123 -126.63452148 203.86962891 C-124.83657948 205.2388164 -123.05385941 206.62609582 -121.27124023 208.01513672 C-99.93505233 224.39738477 -75.32779017 236.17485522 -49.77124023 244.28857422 C-48.56854492 244.67787109 -47.36584961 245.06716797 -46.12670898 245.46826172 C6.05712355 260.85503748 63.64591138 251.82187069 111.19995117 226.72021484 C123.62814846 219.90307773 135.16270902 212.12854732 146.22875977 203.28857422 C147.69829102 202.13615234 147.69829102 202.13615234 149.19750977 200.96044922 C163.23395721 189.74742511 176.81993157 177.14065714 187.99829102 163.07373047 C190.25960823 160.25005415 192.61431624 157.52615053 194.97875977 154.78857422 C210.85921945 137.00294016 210.85921945 137.00294016 219.22875977 116.28857422 C217.04199292 114.41479505 217.04199292 114.41479505 214.22875977 112.60107422 C206.80449117 107.39456791 200.95550253 101.25769335 195.06860352 94.40966797 C193.03367158 92.06366363 190.9458501 89.77120971 188.85375977 87.47607422 C185.81902793 84.12055697 182.92457066 80.70019239 180.10375977 77.16357422 C173.87806753 69.50200805 167.08261958 62.38743079 160.22875977 55.28857422 C159.43405273 54.46518555 158.6393457 53.64179688 157.82055664 52.79345703 C137.02089448 31.3554214 114.8553107 10.52924339 83.16625977 10.03857422 C75.90699225 10.10509672 69.23284194 11.46245347 62.22875977 13.28857422 C61.16915039 13.55541016 60.10954102 13.82224609 59.01782227 14.09716797 C45.46371379 17.8621981 33.42045708 24.95907573 21.53344727 32.30810547 C11.8064723 38.13739189 11.8064723 38.13739189 5.93579102 37.24169922 C1.68262118 35.74419065 -1.76338086 33.09534556 -5.41308594 30.51196289 C-40.36067985 6.22649205 -81.09220461 2.75661194 -114.77124023 30.28857422 Z " fill="#010000" transform="translate(234.771240234375,165.71142578125)"/>
<path d="M0 0 C3.15703137 1.94887315 3.15703137 1.94887315 6.75 1.75 C7.554375 1.234375 8.35875 0.71875 9.1875 0.1875 C20.30988148 -5.83309345 30.44623173 -7.63993563 42.875 -4.1875 C48.56848755 -2.2672113 52.77180777 0.15280777 57.1875 4.1875 C57.79078125 4.68894531 58.3940625 5.19039062 59.015625 5.70703125 C65.51049041 11.5100523 70.58979713 20.40748842 71.36450195 29.1953125 C71.95739788 49.67974869 66.67335904 61.63202775 52.63671875 76.67578125 C49.3131946 80.08411623 45.86277606 83.16599901 42.1875 86.1875 C40.99969503 87.19886068 39.81222797 88.2106183 38.625 89.22265625 C16.09167347 108.22513539 16.09167347 108.22513539 4.47265625 108.4140625 C-12.7710471 106.70443037 -27.7572237 90.42945181 -39.8125 79.1875 C-40.29895996 78.74567383 -40.78541992 78.30384766 -41.28662109 77.84863281 C-52.1743775 67.91169667 -61.26109384 56.37636956 -62.1484375 41.07421875 C-62.41927503 28.41926069 -60.06602087 18.17956739 -51.8125 8.1875 C-37.80391531 -6.41885361 -17.85102798 -10.79913428 0 0 Z " fill="#000000" transform="translate(440.8125,70.8125)"/>
<path d="M0 0 C-1.22004625 3.66013876 -2.63679912 4.12763295 -5.96459961 5.80395508 C-6.65690674 6.1367749 -7.34921387 6.46959473 -8.0625 6.8125 C-8.7747876 7.16143311 -9.4870752 7.51036621 -10.22094727 7.86987305 C-17.63261501 11.42724579 -25.25068115 14.27749701 -33 17 C-33.84046875 17.31839844 -34.6809375 17.63679688 -35.546875 17.96484375 C-45.9945167 21.79691671 -56.55124357 22.18913294 -67.5625 22.25 C-69.12291016 22.26389771 -69.12291016 22.26389771 -70.71484375 22.27807617 C-94.30733895 22.18336449 -115.86838472 13.70648994 -136 2 C-136 1.34 -136 0.68 -136 0 C-126.22041992 -5.37584102 -116.59992359 -10.40002595 -106 -14 C-104.94425781 -14.36867188 -103.88851562 -14.73734375 -102.80078125 -15.1171875 C-67.2269166 -26.8750149 -31.49361207 -18.48021387 0 0 Z " fill="#FBCA83" transform="translate(312,283)"/>
<path d="M0 0 C4.78136448 2.58990576 8.36329766 6.01694505 12 10 C12 10.66 12 11.32 12 12 C12.78375 12.309375 13.5675 12.61875 14.375 12.9375 C17 14 17 14 19 15 C24.650188 15.55394 28.59305916 14.53534588 33 11 C34.87106212 9.00446808 36.62444921 6.93815875 38.37890625 4.83984375 C41.25678848 1.57362078 43.65596684 0.20017515 47.9375 -0.4375 C52.54980576 0.22140082 55.54216718 2.39326739 58.64453125 5.8125 C61.17778377 9.90074614 60.68700335 14.37075314 60 19 C58.73929738 22.03502483 57.04730346 24.44369845 55 27 C53.8553125 28.5159375 53.8553125 28.5159375 52.6875 30.0625 C49.35874664 33.70090483 45.76501699 36.82345456 42 40 C40.92254335 40.92764985 39.84576822 41.85609163 38.76953125 42.78515625 C37.61749836 43.77379986 36.46515397 44.76208058 35.3125 45.75 C34.7659375 46.22203857 34.219375 46.69407715 33.65625 47.18041992 C25.54809182 54.08147852 25.54809182 54.08147852 21.99609375 53.89453125 C12.59831207 49.68300091 4.76493542 41.38814202 -2.58740234 34.34960938 C-3.79435985 33.19647057 -5.01497213 32.05765241 -6.23828125 30.921875 C-11.78994022 25.6436382 -15.1583946 21.29628662 -15.5625 13.4375 C-15.42557217 9.74552001 -15.06153544 7.35733424 -12.75 4.4375 C-8.46429813 0.63880971 -5.8303295 -0.69963954 0 0 Z " fill="#BBDBE2" transform="translate(423,94)"/>
<path d="M0 0 C4.71362305 1.9901964 7.72172827 5.44345654 10 10 C10.40331428 15.24308569 9.86051133 18.56127553 7 23 C2.63911015 27.03382311 -0.85963429 28.42524458 -6.8671875 28.34765625 C-10.68871231 27.72473371 -13.30292924 25.68959965 -16 23 C-18.84038126 18.67768069 -18.79213711 13.0008656 -18 8 C-14.15019239 0.49977721 -7.74744148 -0.88859544 0 0 Z " fill="#040102" transform="translate(416,270)"/>
</svg>
